<svg width="149" height="42" viewBox="0 0 149 42" fill="none" xmlns="http://www.w3.org/2000/svg">
<path d="M59.738 17.83C60.638 17.83 61.352 17.464 61.88 16.732C62.408 16 62.75 15.112 62.906 14.068H64.022C63.854 15.364 63.428 16.468 62.744 17.38C62.36 17.884 61.922 18.262 61.43 18.514C60.95 18.754 60.416 18.91 59.828 18.982C59.252 19.054 58.496 19.09 57.56 19.09C56.24 19.09 55.166 18.964 54.338 18.712C53.522 18.448 52.82 18.022 52.232 17.434C51.08 16.282 50.504 14.698 50.504 12.682C50.504 10.558 51.02 8.98 52.052 7.948C52.724 7.276 53.474 6.832 54.302 6.616C55.13 6.4 56.216 6.292 57.56 6.292C58.796 6.292 59.798 6.382 60.566 6.562C61.346 6.73 61.982 7.096 62.474 7.66C62.882 8.128 63.2 8.692 63.428 9.352C63.656 10.012 63.788 10.666 63.824 11.314H62.798C62.75 10.774 62.618 10.222 62.402 9.658C62.198 9.082 61.874 8.59 61.43 8.182C60.986 7.762 60.422 7.552 59.738 7.552C59.09 7.552 58.568 7.834 58.172 8.398C57.824 8.842 57.56 9.496 57.38 10.36C57.248 11.02 57.182 11.794 57.182 12.682C57.182 14.086 57.35 15.22 57.686 16.084C58.118 17.248 58.802 17.83 59.738 17.83ZM69.8993 6.4H75.1553L80.7353 19H73.9313L72.0413 14.824H68.0813L66.4613 19H65.1473L69.8993 6.4ZM71.5373 13.726L69.8993 10.072L68.4773 13.726H71.5373ZM83.1564 6.4H95.1984C95.7864 6.4 96.3264 6.55 96.8184 6.85C97.3224 7.138 97.7184 7.534 98.0064 8.038C98.3064 8.53 98.4564 9.07 98.4564 9.658C98.4564 10.438 98.2164 11.146 97.7364 11.782C97.2564 12.418 96.6504 12.826 95.9184 13.006C96.5664 13.186 97.0944 13.528 97.5024 14.032C97.9224 14.536 98.1324 15.106 98.1324 15.742V19H92.1024V15.094C92.1024 14.71 92.0304 14.41 91.8864 14.194C91.7184 13.942 91.5264 13.756 91.3104 13.636C91.0704 13.504 90.8004 13.408 90.5004 13.348C90.1884 13.288 89.8944 13.252 89.6184 13.24L89.1324 13.222V19H83.1564V6.4ZM89.7624 12.178C90.1944 12.178 90.5904 12.076 90.9504 11.872C91.3224 11.656 91.6104 11.368 91.8144 11.008C92.0304 10.636 92.1384 10.24 92.1384 9.82C92.1384 9.388 92.0304 8.992 91.8144 8.632C91.6104 8.26 91.3224 7.966 90.9504 7.75C90.5904 7.534 90.1944 7.426 89.7624 7.426H89.1324V12.196L89.7624 12.178ZM101.073 6.4H114.159V7.462H107.409V12.124H110.721V13.204H107.409V17.92H114.159V19H101.073V6.4ZM116.899 6.4H129.985V7.462H123.235V12.124H126.547V13.204H123.235V17.92H129.985V19H116.899V6.4ZM132.724 6.4H144.766C145.354 6.4 145.894 6.55 146.386 6.85C146.89 7.138 147.286 7.534 147.574 8.038C147.874 8.53 148.024 9.07 148.024 9.658C148.024 10.438 147.784 11.146 147.304 11.782C146.824 12.418 146.218 12.826 145.486 13.006C146.134 13.186 146.662 13.528 147.07 14.032C147.49 14.536 147.7 15.106 147.7 15.742V19H141.67V15.094C141.67 14.71 141.598 14.41 141.454 14.194C141.286 13.942 141.094 13.756 140.878 13.636C140.638 13.504 140.368 13.408 140.068 13.348C139.756 13.288 139.462 13.252 139.186 13.24L138.7 13.222V19H132.724V6.4ZM139.33 12.178C139.762 12.178 140.158 12.076 140.518 11.872C140.89 11.656 141.178 11.368 141.382 11.008C141.598 10.636 141.706 10.24 141.706 9.82C141.706 9.388 141.598 8.992 141.382 8.632C141.178 8.26 140.89 7.966 140.518 7.75C140.158 7.534 139.762 7.426 139.33 7.426H138.7V12.196L139.33 12.178ZM59.738 38.83C60.638 38.83 61.352 38.464 61.88 37.732C62.408 37 62.75 36.112 62.906 35.068H64.022C63.854 36.364 63.428 37.468 62.744 38.38C62.36 38.884 61.922 39.262 61.43 39.514C60.95 39.754 60.416 39.91 59.828 39.982C59.252 40.054 58.496 40.09 57.56 40.09C56.24 40.09 55.166 39.964 54.338 39.712C53.522 39.448 52.82 39.022 52.232 38.434C51.08 37.282 50.504 35.698 50.504 33.682C50.504 31.558 51.02 29.98 52.052 28.948C52.724 28.276 53.474 27.832 54.302 27.616C55.13 27.4 56.216 27.292 57.56 27.292C58.796 27.292 59.798 27.382 60.566 27.562C61.346 27.73 61.982 28.096 62.474 28.66C62.882 29.128 63.2 29.692 63.428 30.352C63.656 31.012 63.788 31.666 63.824 32.314H62.798C62.75 31.774 62.618 31.222 62.402 30.658C62.198 30.082 61.874 29.59 61.43 29.182C60.986 28.762 60.422 28.552 59.738 28.552C59.09 28.552 58.568 28.834 58.172 29.398C57.824 29.842 57.56 30.496 57.38 31.36C57.248 32.02 57.182 32.794 57.182 33.682C57.182 35.086 57.35 36.22 57.686 37.084C58.118 38.248 58.802 38.83 59.738 38.83ZM66.6105 27.4H72.4785V40H66.6105V27.4ZM75.2111 27.4H87.2531C87.8411 27.4 88.3811 27.55 88.8731 27.85C89.3771 28.138 89.7731 28.534 90.0611 29.038C90.3611 29.53 90.5111 30.07 90.5111 30.658C90.5111 31.438 90.2711 32.146 89.7911 32.782C89.3111 33.418 88.7051 33.826 87.9731 34.006C88.6211 34.186 89.1491 34.528 89.5571 35.032C89.9771 35.536 90.1871 36.106 90.1871 36.742V40H84.1571V36.094C84.1571 35.71 84.0851 35.41 83.9411 35.194C83.7731 34.942 83.5811 34.756 83.3651 34.636C83.1251 34.504 82.8551 34.408 82.5551 34.348C82.2431 34.288 81.9491 34.252 81.6731 34.24L81.1871 34.222V40H75.2111V27.4ZM81.8171 33.178C82.2491 33.178 82.6451 33.076 83.0051 32.872C83.3771 32.656 83.6651 32.368 83.8691 32.008C84.0851 31.636 84.1931 31.24 84.1931 30.82C84.1931 30.388 84.0851 29.992 83.8691 29.632C83.6651 29.26 83.3771 28.966 83.0051 28.75C82.6451 28.534 82.2491 28.426 81.8171 28.426H81.1871V33.196L81.8171 33.178ZM102.485 38.83C103.385 38.83 104.099 38.464 104.627 37.732C105.155 37 105.497 36.112 105.653 35.068H106.769C106.601 36.364 106.175 37.468 105.491 38.38C105.107 38.884 104.669 39.262 104.177 39.514C103.697 39.754 103.163 39.91 102.575 39.982C101.999 40.054 101.243 40.09 100.307 40.09C98.9872 40.09 97.9132 39.964 97.0852 39.712C96.2692 39.448 95.5672 39.022 94.9792 38.434C93.8272 37.282 93.2512 35.698 93.2512 33.682C93.2512 31.558 93.7672 29.98 94.7992 28.948C95.4712 28.276 96.2212 27.832 97.0492 27.616C97.8772 27.4 98.9632 27.292 100.307 27.292C101.543 27.292 102.545 27.382 103.313 27.562C104.093 27.73 104.729 28.096 105.221 28.66C105.629 29.128 105.947 29.692 106.175 30.352C106.403 31.012 106.535 31.666 106.571 32.314H105.545C105.497 31.774 105.365 31.222 105.149 30.658C104.945 30.082 104.621 29.59 104.177 29.182C103.733 28.762 103.169 28.552 102.485 28.552C101.837 28.552 101.315 28.834 100.919 29.398C100.571 29.842 100.307 30.496 100.127 31.36C99.9952 32.02 99.9292 32.794 99.9292 33.682C99.9292 35.086 100.097 36.22 100.433 37.084C100.865 38.248 101.549 38.83 102.485 38.83ZM109.358 27.4H115.676V38.92H122.516V40H109.358V27.4ZM125.253 27.4H138.339V28.462H131.589V33.124H134.901V34.204H131.589V38.92H138.339V40H125.253V27.4Z" fill="#0E1626"/>
<g clip-path="url(#clip0_2_2540)">
<path d="M39.9448 22.4998H32.8002C26.5593 22.4998 21.5002 27.559 21.5002 33.7998V40.9444C31.3501 40.214 39.2144 32.3497 39.9448 22.4998Z" fill="#0D9488"/>
<path d="M18.5003 40.9444V33.7998C18.5003 27.559 13.4411 22.4998 7.20026 22.4998H0.0556641C0.785998 32.3497 8.65036 40.214 18.5003 40.9444Z" fill="#0D9488"/>
<path d="M39.9448 19.4998C39.2144 9.64987 31.3501 1.78551 21.5002 1.05518V8.19977C21.5002 14.4406 26.5593 19.4998 32.8002 19.4998H39.9448Z" fill="#0D9488"/>
<path d="M18.5003 1.05518C8.65036 1.78551 0.785998 9.64987 0.0556641 19.4998H7.20026C13.4411 19.4998 18.5003 14.4406 18.5003 8.19977V1.05518Z" fill="#0D9488"/>
<path d="M13.583 20.9998C16.3555 19.6145 18.615 17.355 20.0002 14.5825C21.3855 17.355 23.6449 19.6145 26.4175 20.9998C23.6449 22.385 21.3855 24.6445 20.0002 27.417C18.615 24.6445 16.3555 22.385 13.583 20.9998Z" fill="#0E1626"/>
</g>
<defs>
<clipPath id="clip0_2_2540">
<rect width="40" height="40" fill="white" transform="translate(0 1)"/>
</clipPath>
</defs>
</svg>
