<svg width="640" height="368" viewBox="0 0 640 368" fill="none" xmlns="http://www.w3.org/2000/svg">
<g clip-path="url(#clip0_8_543)">
<g clip-path="url(#clip1_8_543)">
<g clip-path="url(#clip2_8_543)">
<path d="M11.8406 110.311C10.4008 110.762 8.86765 110.826 7.39552 110.495C5.92339 110.165 4.56429 109.453 3.45513 108.43C2.34597 107.407 1.52593 106.11 1.07761 104.67C0.629288 103.229 0.568515 101.696 0.901421 100.224C5.89637 79.4437 24.8895 28.6252 94.0822 7.25093C124.054 -2.00763 152.797 -2.16569 179.478 6.77766C201.428 14.1047 215.999 25.5705 222.97 31.1123C224.74 32.5134 225.882 34.5606 226.144 36.8035C226.405 39.0464 225.765 41.3014 224.364 43.0723C224.347 43.0943 224.329 43.1161 224.312 43.1379C222.873 44.9143 220.794 46.0542 218.522 46.312C216.251 46.5699 213.969 45.9249 212.169 44.5162C199.541 34.5663 161.219 4.33847 99.1093 23.5247C38.4633 42.2588 21.9894 86.079 17.7165 104.007C17.392 105.488 16.6754 106.855 15.6417 107.964C14.608 109.073 13.2951 109.883 11.8406 110.311Z" fill="#008080"/>
<path d="M200.432 228.012C199.744 228.234 199.031 228.368 198.31 228.411C144.255 231.322 109.863 186.414 108.451 184.542L108.189 184.11C107.327 182.773 86.517 151.111 95.6783 125.966C99.8862 114.47 109.193 106.401 123.417 102.007C136.647 97.9201 147.473 99.1288 156.687 105.709C164.243 111.07 169.085 119.064 173.779 126.784C183.54 142.814 189.522 150.97 208.075 146.264C216.221 144.197 220.025 137.828 221.763 132.866C226.442 119.366 222.295 100.96 211.325 87.0354C197.151 68.97 157.487 38.9644 108.549 54.0819C87.6506 60.5375 70.5475 73.2593 59.094 90.7766C49.6056 105.314 44.0896 123.37 43.9687 140.208C43.7783 171.56 69.4728 212.806 69.7165 213.18C70.3081 214.126 70.7076 215.179 70.892 216.28C71.0765 217.381 71.0424 218.507 70.7916 219.594C70.5408 220.682 70.0783 221.709 69.4304 222.618C68.7826 223.527 67.9621 224.299 67.0158 224.891C66.9896 224.907 66.9632 224.923 66.9368 224.939C64.998 226.149 62.6614 226.547 60.4316 226.048C58.2018 225.549 56.2578 224.193 55.0193 222.272C53.8596 220.386 26.4232 176.408 26.6443 140.173C26.952 100.898 50.8189 54.0243 103.504 37.7495C127.856 30.2269 153.447 31.4913 177.53 41.3654C196.197 49.0655 213.472 61.8121 224.894 76.367C239.482 94.9454 244.622 119.264 237.981 138.245C233.553 150.898 224.387 159.629 212.206 162.751C180.458 170.827 168.021 150.493 158.95 135.661C149.636 120.455 144.484 113.326 128.386 118.299C119.547 121.029 114.101 125.405 111.811 131.691C108.694 140.285 111.648 151.299 114.675 159.021C114.706 159.102 114.737 159.183 114.769 159.263C118.649 169.078 124.704 177.885 132.479 185.022C144.934 196.523 168.056 212.92 197.526 211.339C199.779 211.199 201.995 211.96 203.687 213.454C205.379 214.948 206.408 217.053 206.548 219.306C206.55 219.333 206.551 219.361 206.553 219.388C206.622 221.298 206.06 223.178 204.953 224.737C203.847 226.296 202.258 227.447 200.432 228.012Z" fill="#008080"/>
<path d="M134.882 244.157C133.755 244.506 132.569 244.622 131.396 244.5C130.223 244.377 129.087 244.018 128.057 243.444C101.396 228.338 82.6792 208.021 69.2016 179.545L69.1474 179.369C60.6533 160.383 55.54 131.375 66.8191 106.858C75.1459 88.7678 90.7759 76.0522 113.196 69.1263C139.714 60.9347 164.406 66.9658 184.671 86.4839C193.887 95.4922 201.382 106.107 206.787 117.806C207.648 119.911 207.647 122.271 206.782 124.375C205.917 126.478 204.259 128.157 202.167 129.048C200.074 129.939 197.715 129.97 195.599 129.135C193.483 128.3 191.782 126.665 190.862 124.585C186.285 114.821 179.967 105.973 172.215 98.4753C156.595 83.6142 138.437 79.22 118.183 85.4768C100.68 90.8836 88.6273 100.442 82.4575 113.89C73.5601 133.247 78.141 157.418 84.7882 172.293C96.6721 197.479 113.156 215.343 136.621 228.614C137.591 229.161 138.443 229.893 139.129 230.769C139.815 231.645 140.322 232.648 140.621 233.72C140.92 234.792 141.005 235.912 140.871 237.017C140.737 238.122 140.386 239.189 139.84 240.158C139.818 240.197 139.796 240.235 139.774 240.273C138.681 242.129 136.937 243.513 134.882 244.157Z" fill="#008080"/>
<path d="M137.689 159.028C143.78 159.028 148.718 154.091 148.718 148C148.718 141.909 143.78 136.972 137.689 136.972C131.599 136.972 126.661 141.909 126.661 148C126.661 154.091 131.599 159.028 137.689 159.028Z" fill="#E6E6E6"/>
<path d="M336.538 282.665C336.31 282.665 336.083 282.648 335.857 282.613C335.273 282.527 334.712 282.325 334.206 282.02C333.701 281.715 333.26 281.313 332.911 280.837L326.853 272.623C326.503 272.148 326.25 271.609 326.108 271.036C325.966 270.463 325.938 269.868 326.026 269.284C326.114 268.7 326.317 268.14 326.622 267.634C326.926 267.129 327.328 266.689 327.803 266.338L379.593 228.142C380.068 227.791 380.608 227.538 381.181 227.396C381.754 227.254 382.349 227.226 382.933 227.314C383.516 227.402 384.077 227.605 384.582 227.91C385.088 228.214 385.528 228.616 385.879 229.091L391.936 237.304C392.643 238.263 392.941 239.465 392.763 240.643C392.585 241.822 391.946 242.882 390.987 243.589L339.197 281.786C338.428 282.357 337.496 282.665 336.538 282.665Z" fill="#008080"/>
<path d="M373.319 251.911L365.393 241.164C364.74 240.278 364.465 239.169 364.629 238.081C364.794 236.993 365.384 236.015 366.269 235.362L396.598 208.789C397.483 208.136 398.592 207.861 399.68 208.026C400.768 208.19 401.746 208.78 402.399 209.665L416.895 226.982C417.548 227.868 417.822 228.976 417.658 230.064C417.494 231.152 416.904 232.13 416.018 232.783L379.121 252.788C378.235 253.441 377.127 253.715 376.039 253.551C374.951 253.387 373.973 252.797 373.319 251.911Z" fill="#2F2E41"/>
<path d="M422.052 366.838H411.846C410.655 366.837 409.512 366.363 408.67 365.52C407.827 364.678 407.353 363.535 407.352 362.344V277.283C407.353 276.092 407.827 274.949 408.67 274.107C409.512 273.264 410.655 272.79 411.846 272.789H422.052C423.243 272.79 424.386 273.264 425.228 274.107C426.071 274.949 426.545 276.092 426.546 277.283V362.344C426.545 363.535 426.071 364.678 425.228 365.52C424.386 366.363 423.243 366.837 422.052 366.838Z" fill="#008080"/>
<path d="M442.237 366.838H432.031C430.84 366.837 429.697 366.363 428.855 365.52C428.012 364.678 427.538 363.535 427.537 362.344V277.283C427.538 276.092 428.012 274.949 428.855 274.107C429.697 273.264 430.84 272.79 432.031 272.789H442.237C443.429 272.79 444.571 273.264 445.414 274.107C446.257 274.949 446.731 276.092 446.732 277.283V362.344C446.731 363.535 446.257 364.678 445.414 365.52C444.571 366.363 443.429 366.837 442.237 366.838Z" fill="#008080"/>
<path d="M537.929 365.524H313.871V367.073H537.929V365.524Z" fill="#3F3D56"/>
<path d="M422.635 172.543C443.073 172.543 459.641 155.974 459.641 135.536C459.641 115.098 443.073 98.5294 422.635 98.5294C402.196 98.5294 385.628 115.098 385.628 135.536C385.628 155.974 402.196 172.543 422.635 172.543Z" fill="#008080"/>
<path d="M479.927 323.223L458.495 228.045V205.558C458.495 204.091 457.913 202.684 456.875 201.646C455.838 200.609 454.431 200.026 452.964 200.026H432.434V185.565C432.434 184.839 432.291 184.12 432.013 183.449C431.735 182.777 431.327 182.168 430.814 181.654C430.3 181.14 429.69 180.733 429.019 180.455C428.348 180.177 427.628 180.034 426.902 180.034H415.839C415.112 180.034 414.393 180.177 413.722 180.455C413.05 180.733 412.441 181.14 411.927 181.654C411.413 182.168 411.006 182.777 410.728 183.449C410.45 184.12 410.307 184.839 410.307 185.565V200.026H389.777C388.31 200.026 386.903 200.609 385.865 201.646C384.828 202.684 384.245 204.091 384.245 205.558V323.859C384.245 324.568 384.382 325.271 384.649 325.928C384.899 327.11 385.537 328.174 386.461 328.952C387.385 329.729 388.543 330.176 389.75 330.22L476.477 333.111C481.66 333.247 484.012 326.506 479.927 323.223Z" fill="#2F2E41"/>
<path d="M422.99 148.684C420.705 148.619 417.86 148.54 415.669 146.939C415.016 146.443 414.48 145.81 414.098 145.085C413.715 144.36 413.496 143.56 413.456 142.741C413.416 142.159 413.511 141.576 413.734 141.036C413.958 140.497 414.302 140.017 414.742 139.633C415.888 138.666 417.561 138.44 419.36 138.969L417.493 125.328L418.864 125.141L421.057 141.176L419.913 140.651C418.586 140.042 416.766 139.733 415.635 140.689C415.357 140.939 415.14 141.25 415.002 141.597C414.864 141.945 414.808 142.319 414.838 142.692C414.871 143.301 415.036 143.896 415.32 144.436C415.604 144.976 416.001 145.449 416.484 145.822C418.19 147.068 420.457 147.229 423.03 147.301L422.99 148.684Z" fill="#2F2E41"/>
<path d="M410.717 126.505H403.269V127.888H410.717V126.505Z" fill="#2F2E41"/>
<path d="M434.227 126.505H426.779V127.888H434.227V126.505Z" fill="#2F2E41"/>
<path d="M390.227 111.616C383.654 107.632 380.558 100.075 380.552 92.6006C380.549 88.6167 381.414 84.68 383.087 81.0645C384.761 77.449 387.202 74.2419 390.241 71.6663C397.012 65.8106 406.029 62.9449 414.837 62.2168C425.495 61.3358 436.083 63.6524 446.261 66.609C457.16 69.7749 467.839 73.7584 478.995 75.9748C489.821 78.1256 500.675 78.3377 511.334 75.2275C521.171 72.3568 531.156 67.2841 541.664 68.1632C550.739 68.9225 557.631 74.9619 562.268 82.4234C571.472 97.2371 572.199 117.12 585.436 129.456C591.159 134.789 598.615 137.206 606.067 139.011C613.213 140.743 620.835 141.853 627.392 145.357C634.424 149.115 638.68 156.178 637.58 164.272C636.331 173.464 629.79 181.375 622.589 186.775C615.007 192.388 606.27 196.24 597.012 198.049C587.754 199.858 578.21 199.58 569.073 197.234C549.966 192.166 534.439 177.357 514.082 176.429C502.726 175.912 491.544 179.006 480.19 178.493C472.32 178.137 463.85 175.228 458.369 169.376C455.738 166.637 454.094 163.1 453.697 159.324C453.573 158.006 451.498 157.993 451.623 159.324C452.401 167.591 458.487 173.698 465.749 177.056C469.572 178.81 473.654 179.934 477.836 180.383C483.393 180.997 489.058 180.416 494.589 179.81C500.435 179.169 506.292 178.379 512.185 178.45C517.566 178.535 522.897 179.484 527.977 181.258C537.73 184.604 546.517 190.154 555.835 194.477C564.853 198.66 574.297 201.254 584.286 201.319C593.913 201.367 603.437 199.324 612.198 195.332C620.826 191.402 628.934 185.535 634.306 177.626C639.343 170.21 641.987 160.482 637.454 152.18C633.902 145.673 627.127 142.381 620.295 140.354C612.722 138.106 604.807 137.08 597.394 134.282C593.52 132.889 589.955 130.751 586.903 127.989C583.628 124.811 580.931 121.088 578.93 116.987C574.686 108.708 572.517 99.6153 568.943 91.0638C565.632 83.1425 561.102 75.1585 553.804 70.2768C549.882 67.6824 545.325 66.2113 540.627 66.0231C535.428 65.788 530.263 66.9813 525.322 68.4851C520.094 70.0764 514.992 72.064 509.724 73.5286C504.175 75.0735 498.423 75.7605 492.667 75.5657C480.827 75.18 469.39 71.663 458.182 68.1171C438.548 61.9053 416.711 55.2553 396.97 64.8305C389.279 68.5614 382.764 74.821 380.017 83.0405C377.586 90.3135 377.922 98.797 381.669 105.573C383.445 108.796 386.035 111.497 389.18 113.407C390.325 114.101 391.369 112.308 390.227 111.616Z" fill="#2F2E41"/>
<path d="M447.439 296.546H437.233C436.041 296.544 434.899 296.07 434.056 295.228C433.214 294.385 432.74 293.243 432.738 292.051V233.1C432.74 231.909 433.214 230.766 434.056 229.924C434.899 229.081 436.041 228.607 437.233 228.606H447.439C448.63 228.607 449.773 229.081 450.615 229.924C451.458 230.766 451.932 231.909 451.933 233.1V292.051C451.932 293.243 451.458 294.385 450.615 295.228C449.773 296.07 448.63 296.544 447.439 296.546Z" fill="#008080"/>
<path d="M408.045 102.46C408.272 104.085 408.949 105.614 409.999 106.875C411.049 108.136 412.431 109.078 413.988 109.596C415.545 110.114 417.216 110.186 418.812 109.805C420.408 109.424 421.866 108.604 423.021 107.439L421.287 106.981C422.254 109.455 423.875 111.62 425.977 113.244C428.079 114.869 430.582 115.892 433.22 116.204C435.858 116.516 438.531 116.106 440.954 115.017C443.377 113.928 445.459 112.201 446.976 110.021C447.758 108.936 445.959 107.899 445.185 108.974C443.877 110.806 442.102 112.253 440.044 113.166C437.986 114.078 435.722 114.423 433.486 114.163C431.25 113.903 429.124 113.049 427.331 111.689C425.537 110.329 424.141 108.512 423.288 106.43C423.236 106.257 423.14 106.102 423.011 105.977C422.882 105.852 422.723 105.762 422.549 105.716C422.375 105.67 422.192 105.67 422.018 105.715C421.844 105.759 421.684 105.848 421.554 105.972C420.654 106.881 419.514 107.516 418.267 107.802C417.02 108.089 415.718 108.014 414.511 107.588C413.305 107.162 412.245 106.402 411.454 105.397C410.663 104.391 410.174 103.181 410.045 101.908C409.86 100.592 407.861 101.152 408.045 102.46Z" fill="#2F2E41"/>
<path d="M342.657 249.732L342.44 249.879L338.425 243.955C338.119 243.505 337.728 243.119 337.274 242.82C336.82 242.521 336.311 242.314 335.777 242.211C335.243 242.109 334.694 242.113 334.161 242.222C333.628 242.332 333.122 242.546 332.672 242.851L320.122 251.359C319.672 251.664 319.286 252.055 318.987 252.509C318.688 252.964 318.481 253.472 318.378 254.006C318.276 254.541 318.28 255.09 318.389 255.622C318.499 256.155 318.713 256.661 319.018 257.111L341.049 289.609C341.354 290.059 341.745 290.445 342.199 290.744C342.654 291.043 343.162 291.25 343.696 291.352C344.231 291.455 344.78 291.451 345.312 291.342C345.845 291.232 346.351 291.018 346.801 290.713L359.351 282.205C359.802 281.9 360.187 281.509 360.486 281.055C360.786 280.6 360.992 280.092 361.095 279.557C361.197 279.023 361.194 278.474 361.084 277.941C360.974 277.409 360.761 276.903 360.456 276.453L345.299 254.095L345.515 253.949L342.657 249.732Z" fill="#3F3D56"/>
<path d="M333.621 244.389L332.036 245.464C332.23 245.593 332.389 245.768 332.5 245.974C332.61 246.179 332.669 246.409 332.67 246.642C332.67 246.875 332.614 247.105 332.505 247.312C332.396 247.518 332.238 247.694 332.045 247.825L325.086 252.543C324.893 252.674 324.671 252.755 324.439 252.78C324.207 252.805 323.973 252.772 323.756 252.685C323.54 252.598 323.348 252.458 323.198 252.28C323.049 252.101 322.945 251.888 322.897 251.66L321.415 252.664C321.09 252.885 320.811 253.167 320.595 253.496C320.379 253.824 320.229 254.192 320.155 254.578C320.081 254.964 320.084 255.361 320.163 255.746C320.242 256.131 320.397 256.497 320.617 256.822L341.91 288.23C342.13 288.556 342.413 288.835 342.741 289.051C343.07 289.267 343.437 289.417 343.824 289.491C344.21 289.565 344.607 289.562 344.992 289.483C345.377 289.404 345.743 289.249 346.068 289.029L358.273 280.754C358.931 280.309 359.384 279.62 359.534 278.84C359.683 278.061 359.517 277.253 359.072 276.596L337.779 245.188C337.558 244.862 337.276 244.583 336.947 244.367C336.619 244.151 336.251 244.001 335.865 243.927C335.479 243.853 335.082 243.856 334.697 243.935C334.312 244.014 333.947 244.168 333.621 244.389Z" fill="white"/>
</g>
</g>
</g>
<defs>
<clipPath id="clip0_8_543">
<rect width="639.099" height="366.887" fill="white" transform="translate(0.686523 0.186523)"/>
</clipPath>
<clipPath id="clip1_8_543">
<rect width="639.099" height="366.887" fill="white" transform="translate(0.686523 0.186523)"/>
</clipPath>
<clipPath id="clip2_8_543">
<rect width="639.093" height="366.887" fill="white" transform="translate(0.689819 0.186523)"/>
</clipPath>
</defs>
</svg>
